# Blender 4.0.2
# www.blender.org
o RoadForward
v -10.000000 -1.999997 20.000000
v -10.000000 -2.000003 -20.000000
v -10.000000 -0.500003 -20.000000
v 10.000000 -0.500003 -20.000000
v -10.000000 -2.000002 -10.000000
v -10.000000 -0.499998 10.000000
v -10.000000 -0.500000 0.000000
v -10.000000 -0.500002 -10.000000
v 10.000000 -2.000003 -20.000000
v 0.000000 -2.000003 -20.000000
v -6.000000 -0.500003 -20.000000
v 6.000000 -0.500003 -20.000000
v 10.000000 -2.000000 0.000000
v 10.000000 -0.500002 -10.000000
v 10.000000 -0.500000 0.000000
v 10.000000 -0.499998 10.000000
v 0.000000 -1.999997 20.000000
v 10.000000 -1.999997 20.000000
v 6.000000 -0.499997 20.000000
v -6.000000 -0.499997 20.000000
v 6.000000 -0.500002 -10.000000
v 6.000000 -0.500000 0.000000
v 6.000000 -0.499998 10.000000
v -6.000000 -0.500002 -10.000000
v -6.000000 -0.500000 0.000000
v -6.000000 -0.499998 10.000000
v -10.000000 -2.000000 0.000000
v -10.000000 -1.999998 10.000000
v 0.000000 -2.000002 -10.000000
v 0.000000 -2.000000 0.000000
v 0.000000 -1.999998 10.000000
v 10.000000 -2.000002 -10.000000
v 10.000000 -1.999998 10.000000
v 10.000000 -0.499997 20.000000
v -10.000000 -0.499997 20.000000
v -10.000000 -0.000003 -20.000000
v 10.000000 -0.000003 -20.000000
v 10.000000 0.000003 20.000000
v -10.000000 0.000003 20.000000
v -10.000000 0.000002 10.000000
v -10.000000 0.000000 0.000000
v 10.000000 -0.000002 -10.000000
v 10.000000 0.000002 10.000000
v 10.000000 0.000000 0.000000
v -10.000000 -0.000002 -10.000000
v 6.000000 0.000002 10.000000
v 6.000000 0.000003 20.000000
v 6.000000 -0.000003 -20.000000
v 6.000000 -0.000002 -10.000000
v 6.000000 0.000000 0.000000
v -6.000000 0.000002 10.000000
v -6.000000 0.000003 20.000000
v -6.000000 -0.000003 -20.000000
v -6.000000 -0.000002 -10.000000
v -6.000000 0.000000 0.000000
v 6.050000 -0.300001 -9.800000
v 6.050000 -0.299999 -0.200000
v 6.050000 -0.200001 -0.200000
v 6.050000 -0.200002 -9.800000
v 6.050000 -0.300002 -19.799999
v 6.050000 -0.300001 -10.200000
v 6.050000 -0.200002 -10.200000
v 6.050000 -0.200004 -19.799999
v 6.050000 -0.299998 10.200000
v 6.050000 -0.299996 19.799999
v 6.050000 -0.199998 19.799999
v 6.050000 -0.199999 10.200000
v -6.050000 -0.299998 9.800000
v -6.050000 -0.299999 0.200000
v -6.050000 -0.200001 0.200000
v -6.050000 -0.199999 9.800000
v -6.050000 -0.299999 -0.200000
v -6.050000 -0.300001 -9.800000
v -6.050000 -0.200002 -9.800000
v -6.050000 -0.200001 -0.200000
v -6.050000 -0.300001 -10.200000
v -6.050000 -0.300002 -19.799999
v -6.050000 -0.200004 -19.799999
v -6.050000 -0.200002 -10.200000
v 6.050000 -0.299999 0.200000
v 6.050000 -0.299998 9.800000
v 6.050000 -0.199999 9.800000
v 6.050000 -0.200001 0.200000
v -6.050000 -0.299996 19.799999
v -6.050000 -0.299998 10.200000
v -6.050000 -0.199999 10.200000
v -6.050000 -0.199998 19.799999
v 7.000000 0.000002 11.000000
v 7.000000 0.000003 19.000000
v 9.000000 0.000003 19.000000
v 9.000000 0.000002 11.000000
v 7.000000 -0.000003 -19.000000
v 7.000000 -0.000002 -11.000000
v 9.000000 -0.000002 -11.000000
v 9.000000 -0.000003 -19.000000
v 7.000000 -0.000001 -9.000000
v 7.000000 -0.000000 -1.000000
v 9.000000 -0.000000 -1.000000
v 9.000000 -0.000001 -9.000000
v 7.000000 0.000000 1.000000
v 7.000000 0.000001 9.000000
v 9.000000 0.000001 9.000000
v 9.000000 0.000000 1.000000
v -7.000000 0.000003 19.000000
v -7.000000 0.000002 11.000000
v -9.000000 0.000002 11.000000
v -9.000000 0.000003 19.000000
v -7.000000 -0.000002 -11.000000
v -7.000000 -0.000003 -19.000000
v -9.000000 -0.000003 -19.000000
v -9.000000 -0.000002 -11.000000
v -7.000000 -0.000000 -1.000000
v -7.000000 -0.000001 -9.000000
v -9.000000 -0.000001 -9.000000
v -9.000000 -0.000000 -1.000000
v -7.000000 0.000001 9.000000
v -7.000000 0.000000 1.000000
v -9.000000 0.000000 1.000000
v -9.000000 0.000001 9.000000
v -1.000000 -0.500003 -20.000000
v 1.000000 -0.500003 -20.000000
v 0.000000 -1.500003 -20.000000
v 1.000000 -0.499997 20.000000
v -1.000000 -0.499997 20.000000
v 0.000000 -1.499997 20.000000
v -1.000000 -0.500002 -10.000000
v 1.000000 -0.500002 -10.000000
v -1.000000 -0.500000 0.000000
v 1.000000 -0.500000 0.000000
v 1.000000 -0.499998 10.000000
v -1.000000 -0.499998 10.000000
v -0.250000 -0.499998 10.750000
v -0.250000 -0.499997 19.250000
v 0.250000 -0.499997 19.250000
v 0.250000 -0.499998 10.750000
v -0.250000 -0.500003 -19.250000
v -0.250000 -0.500002 -10.750000
v 0.250000 -0.500002 -10.750000
v 0.250000 -0.500003 -19.250000
v -0.250000 -0.500001 -9.250000
v -0.250000 -0.500000 -0.750000
v 0.250000 -0.500000 -0.750000
v 0.250000 -0.500001 -9.250000
v -0.250000 -0.500000 0.750000
v -0.250000 -0.499998 9.250000
v 0.250000 -0.499998 9.250000
v 0.250000 -0.500000 0.750000
vn -1.0000 -0.0000 -0.0000
vn 1.0000 -0.0000 -0.0000
vn -0.0000 -0.0000 -1.0000
vn -0.0000 -0.0000 1.0000
vn -0.0000 1.0000 -0.0000
vn -0.0000 -1.0000 -0.0000
vn -0.9701 0.2425 -0.0000
vn -0.9701 -0.0000 -0.2425
vn -0.9701 -0.2425 -0.0000
vn -0.9701 -0.0000 0.2425
vn 0.9701 0.2425 -0.0000
vn 0.9701 -0.0000 0.2425
vn 0.9701 -0.2425 -0.0000
vn 0.9701 -0.0000 -0.2425
vt 0.849457 0.825000
vt 0.828261 0.825000
vt 0.828261 0.812500
vt 0.849457 0.812500
vt 0.827717 0.775000
vt 0.806522 0.775000
vt 0.806522 0.762500
vt 0.827717 0.762500
vt 0.828261 0.775000
vt 0.828261 0.780000
vt 0.827717 0.780000
vt 0.827717 0.775000
vt 0.828261 0.850000
vt 0.828261 0.862500
vt 0.827717 0.862500
vt 0.827717 0.850000
vt 0.782609 0.837500
vt 0.783696 0.838750
vt 0.783696 0.845000
vt 0.783696 0.850000
vt 0.762500 0.850000
vt 0.762500 0.837500
vt 0.112500 0.275000
vt 0.107065 0.275000
vt 0.107065 0.262500
vt 0.112500 0.262500
vt 0.924783 0.075250
vt 0.924783 0.087250
vt 0.924674 0.087250
vt 0.924674 0.075250
vt 0.924783 0.062750
vt 0.924783 0.074750
vt 0.924674 0.074750
vt 0.924674 0.062750
vt 0.104891 0.275000
vt 0.099457 0.275000
vt 0.099457 0.262500
vt 0.104891 0.262500
vt 0.104891 0.287500
vt 0.099457 0.287500
vt 0.829348 0.787500
vt 0.828261 0.786250
vt 0.849457 0.775000
vt 0.849457 0.787500
vt 0.112500 0.300000
vt 0.107065 0.300000
vt 0.107065 0.287500
vt 0.112500 0.287500
vt 0.828261 0.795000
vt 0.828261 0.800000
vt 0.827717 0.800000
vt 0.827717 0.795000
vt 0.924783 0.100250
vt 0.924783 0.112250
vt 0.924674 0.112250
vt 0.924674 0.100250
vt 0.773370 0.800000
vt 0.784239 0.800000
vt 0.784239 0.812500
vt 0.773370 0.812500
vt 0.795109 0.800000
vt 0.795109 0.812500
vt 0.773370 0.762500
vt 0.784239 0.762500
vt 0.784239 0.775000
vt 0.773370 0.775000
vt 0.784239 0.787500
vt 0.773370 0.787500
vt 0.795109 0.762500
vt 0.795109 0.775000
vt 0.795109 0.787500
vt 0.783696 0.830000
vt 0.783696 0.836250
vt 0.762500 0.825000
vt 0.783696 0.825000
vt 0.827717 0.812500
vt 0.806522 0.812500
vt 0.806522 0.800000
vt 0.806522 0.787500
vt 0.827717 0.787500
vt 0.828261 0.788750
vt 0.849457 0.800000
vt 0.104891 0.300000
vt 0.099457 0.300000
vt 0.849457 0.862500
vt 0.849457 0.850000
vt 0.828261 0.837500
vt 0.849457 0.837500
vt 0.805978 0.787500
vt 0.805978 0.775000
vt 0.925217 0.099750
vt 0.925217 0.087750
vt 0.925326 0.087750
vt 0.925326 0.099750
vt 0.805978 0.800000
vt 0.925217 0.087250
vt 0.925217 0.075250
vt 0.925326 0.075250
vt 0.925326 0.087250
vt 0.784239 0.845000
vt 0.784239 0.850000
vt 0.805978 0.812500
vt 0.925217 0.074750
vt 0.925217 0.062750
vt 0.925326 0.062750
vt 0.925326 0.074750
vt 0.112500 0.312500
vt 0.107065 0.312500
vt 0.660326 0.823750
vt 0.660326 0.813750
vt 0.662500 0.813750
vt 0.662500 0.823750
vt 0.660326 0.861250
vt 0.660326 0.851250
vt 0.662500 0.851250
vt 0.662500 0.861250
vt 0.660326 0.848750
vt 0.660326 0.838750
vt 0.662500 0.838750
vt 0.662500 0.848750
vt 0.660326 0.836250
vt 0.660326 0.826250
vt 0.662500 0.826250
vt 0.662500 0.836250
vt 0.701630 0.813750
vt 0.701630 0.823750
vt 0.699457 0.823750
vt 0.699457 0.813750
vt 0.701630 0.851250
vt 0.701630 0.861250
vt 0.699457 0.861250
vt 0.699457 0.851250
vt 0.701630 0.838750
vt 0.701630 0.848750
vt 0.699457 0.848750
vt 0.699457 0.838750
vt 0.701630 0.826250
vt 0.701630 0.836250
vt 0.699457 0.836250
vt 0.699457 0.826250
vt 0.805978 0.762500
vt 0.924783 0.087750
vt 0.924783 0.099750
vt 0.924674 0.099750
vt 0.924674 0.087750
vt 0.827717 0.837500
vt 0.784239 0.825000
vt 0.784239 0.830000
vt 0.925217 0.112250
vt 0.925217 0.100250
vt 0.925326 0.100250
vt 0.925326 0.112250
vt 0.827717 0.825000
vt 0.800000 0.825000
vt 0.800000 0.837500
vt 0.799783 0.837250
vt 0.799783 0.825250
vt 0.799457 0.837500
vt 0.799674 0.837250
vt 0.799457 0.825000
vt 0.799674 0.825250
vt 0.800000 0.812500
vt 0.799783 0.824750
vt 0.799783 0.812750
vt 0.799674 0.824750
vt 0.799457 0.812500
vt 0.799674 0.812750
vt 0.800000 0.850000
vt 0.800000 0.862500
vt 0.799783 0.862250
vt 0.799783 0.850250
vt 0.799457 0.862500
vt 0.799674 0.862250
vt 0.799457 0.850000
vt 0.799674 0.850250
vt 0.800217 0.837750
vt 0.800217 0.849750
vt 0.800543 0.837500
vt 0.800326 0.837750
vt 0.800543 0.850000
vt 0.800326 0.849750
vt 0.800217 0.825250
vt 0.800217 0.837250
vt 0.800543 0.825000
vt 0.800326 0.825250
vt 0.800326 0.837250
vt 0.800217 0.812750
vt 0.800217 0.824750
vt 0.800543 0.812500
vt 0.800326 0.812750
vt 0.800326 0.824750
vt 0.799783 0.849750
vt 0.799783 0.837750
vt 0.799674 0.849750
vt 0.799674 0.837750
vt 0.800217 0.850250
vt 0.800217 0.862250
vt 0.800326 0.850250
vt 0.800543 0.862500
vt 0.800326 0.862250
vt 0.785326 0.813750
vt 0.785326 0.823750
vt 0.788587 0.812500
vt 0.787500 0.813750
vt 0.788587 0.825000
vt 0.787500 0.823750
vt 0.784239 0.862500
vt 0.784239 0.850000
vt 0.785326 0.851250
vt 0.785326 0.861250
vt 0.788587 0.850000
vt 0.787500 0.851250
vt 0.788587 0.862500
vt 0.787500 0.861250
vt 0.784239 0.837500
vt 0.785326 0.838750
vt 0.785326 0.848750
vt 0.788587 0.837500
vt 0.787500 0.838750
vt 0.787500 0.848750
vt 0.785326 0.826250
vt 0.785326 0.836250
vt 0.787500 0.826250
vt 0.787500 0.836250
vt 0.826630 0.823750
vt 0.826630 0.813750
vt 0.823370 0.825000
vt 0.824457 0.823750
vt 0.823370 0.812500
vt 0.824457 0.813750
vt 0.827717 0.862500
vt 0.826630 0.861250
vt 0.826630 0.851250
vt 0.823370 0.862500
vt 0.824457 0.861250
vt 0.823370 0.850000
vt 0.824457 0.851250
vt 0.826630 0.848750
vt 0.826630 0.838750
vt 0.824457 0.848750
vt 0.823370 0.837500
vt 0.824457 0.838750
vt 0.826630 0.836250
vt 0.826630 0.826250
vt 0.824457 0.836250
vt 0.824457 0.826250
vt 0.828261 0.787500
vt 0.783696 0.837500
vt 0.980707 0.649063
vt 0.980707 0.638438
vt 0.981250 0.638438
vt 0.981250 0.649063
vt 0.980707 0.686563
vt 0.980707 0.675937
vt 0.981250 0.675937
vt 0.981250 0.686563
vt 0.980707 0.674062
vt 0.980707 0.663438
vt 0.981250 0.663438
vt 0.981250 0.674062
vt 0.980707 0.661563
vt 0.980707 0.650937
vt 0.981250 0.650937
vt 0.981250 0.661563
vt 0.104891 0.312500
vt 0.099457 0.312500
vt 0.105707 0.263438
vt 0.105707 0.274062
vt 0.106250 0.263438
vt 0.106250 0.274063
vt 0.105707 0.300937
vt 0.105707 0.311563
vt 0.106250 0.300937
vt 0.106250 0.311563
vt 0.105707 0.288438
vt 0.105707 0.299062
vt 0.106250 0.288438
vt 0.106250 0.299062
vt 0.105707 0.275937
vt 0.105707 0.286563
vt 0.106250 0.275937
vt 0.106250 0.286563
s 1
f 5/1/1 8/2/1 3/3/1 2/4/1
f 33/5/2 16/6/2 34/7/2 18/8/2
f 4/9/3 12/10/3 48/11/3 37/12/3
f 6/13/1 35/14/1 39/15/1 40/16/1
f 125/17/4 124/18/4 20/19/4 35/20/4 1/21/4 17/22/4
f 23/23/5 130/24/5 123/25/5 19/26/5
f 56/27/1 57/28/1 58/29/1 59/30/1
f 60/31/1 61/32/1 62/33/1 63/34/1
f 131/35/5 26/36/5 20/37/5 124/38/5
f 128/39/5 25/40/5 26/36/5 131/35/5
f 122/41/3 121/42/3 12/10/3 4/9/3 9/43/3 10/44/3
f 21/45/5 127/46/5 129/47/5 22/48/5
f 22/48/5 129/47/5 130/24/5 23/23/5
f 11/49/3 3/50/3 36/51/3 53/52/3
f 64/53/1 65/54/1 66/55/1 67/56/1
f 28/57/6 31/58/6 17/59/6 1/60/6
f 31/58/6 33/61/6 18/62/6 17/59/6
f 2/63/6 10/64/6 29/65/6 5/66/6
f 5/66/6 29/65/6 30/67/6 27/68/6
f 27/68/6 30/67/6 31/58/6 28/57/6
f 10/64/6 9/69/6 32/70/6 29/65/6
f 29/65/6 32/70/6 13/71/6 30/67/6
f 30/67/6 13/71/6 33/61/6 31/58/6
f 19/72/4 123/73/4 125/17/4 17/22/4 18/74/4 34/75/4
f 9/76/2 4/77/2 14/78/2 32/51/2
f 32/51/2 14/78/2 15/79/2 13/80/2
f 13/80/2 15/79/2 16/6/2 33/5/2
f 11/49/3 120/81/3 122/41/3 10/44/3 2/82/3 3/50/3
f 126/83/5 24/84/5 25/40/5 128/39/5
f 1/85/1 35/14/1 6/13/1 28/86/1
f 28/86/1 6/13/1 7/87/1 27/88/1
f 27/88/1 7/87/1 8/2/1 5/1/1
f 16/6/2 15/79/2 44/89/2 43/90/2
f 68/91/2 69/92/2 70/93/2 71/94/2
f 15/79/2 14/78/2 42/95/2 44/89/2
f 72/96/2 73/97/2 74/98/2 75/99/2
f 35/20/4 20/19/4 52/100/4 39/101/4
f 14/78/2 4/77/2 37/102/2 42/95/2
f 76/103/2 77/104/2 78/105/2 79/106/2
f 12/107/5 121/108/5 127/46/5 21/45/5
f 88/109/5 89/110/5 90/111/5 91/112/5
f 92/113/5 93/114/5 94/115/5 95/116/5
f 96/117/5 97/118/5 98/119/5 99/120/5
f 100/121/5 101/122/5 102/123/5 103/124/5
f 104/125/5 105/126/5 106/127/5 107/128/5
f 108/129/5 109/130/5 110/131/5 111/132/5
f 112/133/5 113/134/5 114/135/5 115/136/5
f 116/137/5 117/138/5 118/139/5 119/140/5
f 34/7/2 16/6/2 43/90/2 38/141/2
f 80/142/1 81/143/1 82/144/1 83/145/1
f 7/87/1 6/13/1 40/16/1 41/146/1
f 19/72/4 34/75/4 38/147/4 47/148/4
f 84/149/2 85/150/2 86/151/2 87/152/2
f 3/3/1 8/2/1 45/153/1 36/76/1
f 8/2/1 7/87/1 41/146/1 45/153/1
f 21/154/7 22/155/7 57/156/7 56/157/7
f 22/155/8 50/158/8 58/159/8 57/156/8
f 50/158/9 49/160/9 59/161/9 58/159/9
f 49/160/10 21/154/10 56/157/10 59/161/10
f 12/162/7 21/154/7 61/163/7 60/164/7
f 21/154/8 49/160/8 62/165/8 61/163/8
f 49/160/9 48/166/9 63/167/9 62/165/9
f 48/166/10 12/162/10 60/164/10 63/167/10
f 23/168/7 19/169/7 65/170/7 64/171/7
f 19/169/8 47/172/8 66/173/8 65/170/8
f 47/172/9 46/174/9 67/175/9 66/173/9
f 46/174/10 23/168/10 64/171/10 67/175/10
f 26/168/11 25/155/11 69/176/11 68/177/11
f 25/155/12 55/178/12 70/179/12 69/176/12
f 55/178/13 51/180/13 71/181/13 70/179/13
f 51/180/14 26/168/14 68/177/14 71/181/14
f 25/155/11 24/154/11 73/182/11 72/183/11
f 24/154/12 54/184/12 74/185/12 73/182/12
f 54/184/13 55/178/13 75/186/13 74/185/13
f 55/178/14 25/155/14 72/183/14 75/186/14
f 24/154/11 11/162/11 77/187/11 76/188/11
f 11/162/12 53/189/12 78/190/12 77/187/12
f 53/189/13 54/184/13 79/191/13 78/190/13
f 54/184/14 24/154/14 76/188/14 79/191/14
f 22/155/7 23/168/7 81/192/7 80/193/7
f 23/168/8 46/174/8 82/194/8 81/192/8
f 46/174/9 50/158/9 83/195/9 82/194/9
f 50/158/10 22/155/10 80/193/10 83/195/10
f 20/169/11 26/168/11 85/196/11 84/197/11
f 26/168/12 51/180/12 86/198/12 85/196/12
f 51/180/13 52/199/13 87/200/13 86/198/13
f 52/199/14 20/169/14 84/197/14 87/200/14
f 46/147/5 47/59/5 89/201/5 88/202/5
f 47/59/5 38/203/5 90/204/5 89/201/5
f 38/203/5 43/205/5 91/206/5 90/204/5
f 43/205/5 46/147/5 88/202/5 91/206/5
f 48/207/5 49/208/5 93/209/5 92/210/5
f 49/208/5 42/211/5 94/212/5 93/209/5
f 42/211/5 37/213/5 95/214/5 94/212/5
f 37/213/5 48/207/5 92/210/5 95/214/5
f 49/208/5 50/215/5 97/216/5 96/217/5
f 50/215/5 44/218/5 98/219/5 97/216/5
f 44/218/5 42/211/5 99/220/5 98/219/5
f 42/211/5 49/208/5 96/217/5 99/220/5
f 50/215/5 46/147/5 101/221/5 100/222/5
f 46/147/5 43/205/5 102/223/5 101/221/5
f 43/205/5 44/218/5 103/224/5 102/223/5
f 44/218/5 50/215/5 100/222/5 103/224/5
f 52/76/5 51/153/5 105/225/5 104/226/5
f 51/153/5 40/227/5 106/228/5 105/225/5
f 40/227/5 39/229/5 107/230/5 106/228/5
f 39/229/5 52/76/5 104/226/5 107/230/5
f 54/16/5 53/231/5 109/232/5 108/233/5
f 53/231/5 36/234/5 110/235/5 109/232/5
f 36/234/5 45/236/5 111/237/5 110/235/5
f 45/236/5 54/16/5 108/233/5 111/237/5
f 55/146/5 54/16/5 113/238/5 112/239/5
f 54/16/5 45/236/5 114/240/5 113/238/5
f 45/236/5 41/241/5 115/242/5 114/240/5
f 41/241/5 55/146/5 112/239/5 115/242/5
f 51/153/5 55/146/5 117/243/5 116/244/5
f 55/146/5 41/241/5 118/245/5 117/243/5
f 41/241/5 40/227/5 119/246/5 118/245/5
f 40/227/5 51/153/5 116/244/5 119/246/5
f 120/81/3 121/247/3 122/41/3
f 123/73/4 124/248/4 125/17/4
f 132/249/5 133/250/5 134/251/5 135/252/5
f 136/253/5 137/254/5 138/255/5 139/256/5
f 140/257/5 141/258/5 142/259/5 143/260/5
f 144/261/5 145/262/5 146/263/5 147/264/5
f 120/265/5 11/266/5 24/84/5 126/83/5
f 131/35/5 124/38/5 133/267/5 132/268/5
f 124/38/5 123/25/5 134/269/5 133/267/5
f 123/25/5 130/24/5 135/270/5 134/269/5
f 130/24/5 131/35/5 132/268/5 135/270/5
f 120/265/5 126/83/5 137/271/5 136/272/5
f 126/83/5 127/46/5 138/273/5 137/271/5
f 127/46/5 121/108/5 139/274/5 138/273/5
f 121/108/5 120/265/5 136/272/5 139/274/5
f 126/83/5 128/39/5 141/275/5 140/276/5
f 128/39/5 129/47/5 142/277/5 141/275/5
f 129/47/5 127/46/5 143/278/5 142/277/5
f 127/46/5 126/83/5 140/276/5 143/278/5
f 128/39/5 131/35/5 145/279/5 144/280/5
f 131/35/5 130/24/5 146/281/5 145/279/5
f 130/24/5 129/47/5 147/282/5 146/281/5
f 129/47/5 128/39/5 144/280/5 147/282/5
